<?xml version="1.0" encoding="UTF-8"?>
<svg width="48" height="30" viewBox="0 0 48 30" fill="none" xmlns="http://www.w3.org/2000/svg">
  <path d="M29.6045 3.77637H18.3955V26.2236H29.6045V3.77637Z" fill="#FF5F00"/>
  <path d="M19.2045 15C19.2045 10.2 21.4545 5.925 24.9545 3.775C22.3295 1.75 19.0545 0.5 15.4795 0.5C7.20455 0.5 0.479492 7 0.479492 15C0.479492 23 7.20455 29.5 15.4795 29.5C19.0545 29.5 22.3295 28.25 24.9545 26.225C21.4545 24.1 19.2045 19.8 19.2045 15Z" fill="#EB001B"/>
  <path d="M47.5205 15C47.5205 23 40.7955 29.5 32.5205 29.5C28.9455 29.5 25.6705 28.25 23.0455 26.225C26.5705 24.075 28.7955 19.8 28.7955 15C28.7955 10.2 26.5455 5.925 23.0455 3.775C25.6705 1.75 28.9455 0.5 32.5205 0.5C40.7955 0.5 47.5205 7.025 47.5205 15Z" fill="#F79E1B"/>
</svg> 