<?xml version="1.0" encoding="UTF-8"?>
<svg width="48" height="16" viewBox="0 0 48 16" fill="none" xmlns="http://www.w3.org/2000/svg">
  <path d="M19.5388 15.0125H15.7277L18.1555 1.00195H21.9666L19.5388 15.0125Z" fill="#00579F"/>
  <path d="M34.5402 1.3894C33.8402 1.12663 32.6902 0.833008 31.2652 0.833008C27.4902 0.833008 24.8152 2.78301 24.8027 5.53301C24.7777 7.56551 26.7527 8.69051 28.2277 9.35301C29.7402 10.028 30.2652 10.4655 30.2652 11.078C30.2527 12.028 29.0527 12.453 27.9402 12.453C26.3777 12.453 25.5402 12.2155 24.2902 11.703L23.7902 11.4905L23.2527 14.7655C24.0777 15.103 25.6402 15.403 27.2652 15.4155C31.2527 15.4155 33.8777 13.4905 33.9027 10.5655C33.9152 8.94051 32.7652 7.72801 30.4902 6.72801C29.0902 6.09051 28.2402 5.66551 28.2402 5.00301C28.2527 4.40301 28.9277 3.77801 30.5027 3.77801C31.7902 3.76551 32.7402 4.06551 33.4777 4.36551L33.8152 4.51551L34.5402 1.3894Z" fill="#00579F"/>
  <path d="M39.7027 9.86543C40.1027 8.80293 41.4902 5.09043 41.4902 5.09043C41.4777 5.11543 41.8402 4.16543 42.0527 3.59043L42.3527 4.95293C42.3527 4.95293 43.2027 8.94043 43.4027 9.86543C42.7527 9.86543 40.4777 9.86543 39.7027 9.86543ZM44.9902 1.00293H42.1527C41.3527 1.00293 40.7402 1.24043 40.3902 2.09043L34.5527 15.0154H38.4902C38.4902 15.0154 39.2652 12.9404 39.4277 12.5029C39.8902 12.5029 43.6527 12.5029 44.2402 12.5029C44.3652 13.0779 44.7777 15.0154 44.7777 15.0154H48.1527L44.9902 1.00293Z" fill="#00579F"/>
  <path d="M13.5902 1.00293L9.87773 10.7779L9.46523 8.94043C8.72773 6.61543 6.56523 4.09043 4.16523 2.79043L7.59023 15.0029H11.5527L17.5527 1.00293H13.5902Z" fill="#00579F"/>
  <path d="M6.25273 1.00293H0.0527344L0.00273438 1.26543C4.84023 2.46543 8.04023 5.37793 9.46523 8.94043L8.11523 2.10293C7.89023 1.26543 7.14023 1.01543 6.25273 1.00293Z" fill="#FAA61A"/>
</svg> 